<svg width="49" height="49" viewBox="0 0 49 49" fill="none" xmlns="http://www.w3.org/2000/svg">
<path d="M38.8811 37.0816C39.0219 37.2223 39.1009 37.4132 39.1009 37.6122C39.1009 37.8113 39.0219 38.0021 38.8811 38.1429C38.7404 38.2836 38.5495 38.3627 38.3505 38.3627C38.1515 38.3627 37.9606 38.2836 37.8199 38.1429L24.8505 25.1735L11.8811 38.1429C11.7404 38.2836 11.5495 38.3627 11.3505 38.3627C11.1515 38.3627 10.9606 38.2836 10.8199 38.1429C10.6792 38.0021 10.6001 37.8113 10.6001 37.6122C10.6001 37.4132 10.6792 37.2223 10.8199 37.0816L23.7893 24.1122L10.8199 11.1429C10.6792 11.0021 10.6001 10.8113 10.6001 10.6122C10.6001 10.4132 10.6792 10.2223 10.8199 10.0816C10.9606 9.94088 11.1515 9.86182 11.3505 9.86182C11.5495 9.86182 11.7404 9.94088 11.8811 10.0816L24.8505 23.051L37.8199 10.0816C37.8896 10.0119 37.9723 9.95665 38.0633 9.91894C38.1544 9.88123 38.252 9.86182 38.3505 9.86182C38.4491 9.86182 38.5466 9.88123 38.6377 9.91894C38.7287 9.95665 38.8115 10.0119 38.8811 10.0816C38.9508 10.1513 39.0061 10.234 39.0438 10.3251C39.0815 10.4161 39.1009 10.5137 39.1009 10.6122C39.1009 10.7108 39.0815 10.8084 39.0438 10.8994C39.0061 10.9905 38.9508 11.0732 38.8811 11.1429L25.9118 24.1122L38.8811 37.0816Z" fill="#FDBE00"/>
</svg>
