<svg width="0" height="0" class="hidden">
  <symbol fill="none" xmlns="http://www.w3.org/2000/svg" viewBox="0 0 64 59" id="apk">
    <path d="M52.3636 58.1818L40.7273 46.5455L44.8 42.4L49.4545 46.9818V34.9091H55.2727V46.9818L59.9273 42.4L64 46.5455L52.3636 58.1818ZM5.81819 58.1818C4.21819 58.1818 2.848 57.6116 1.70764 56.4713C0.567277 55.3309 -0.00193445 53.9617 4.93904e-06 52.3636V5.81819C4.93904e-06 4.21819 0.570187 2.848 1.71055 1.70764C2.85091 0.567277 4.22013 -0.00193445 5.81819 4.93904e-06H29.0909L46.5455 17.4545V29.8182H37.8182V58.1818H5.81819ZM26.1818 20.3636H40.7273L26.1818 5.81819V20.3636ZM8.72728 49.4545H37.8182C37.6242 47.0788 36.897 44.897 35.6364 42.9091C34.3758 40.9212 32.7273 39.3455 30.6909 38.1818L33.4545 33.2364C33.5515 33.0424 33.5758 32.8242 33.5273 32.5818C33.4788 32.3394 33.3333 32.1697 33.0909 32.0727C32.897 31.9758 32.6904 31.9515 32.4713 32C32.2521 32.0485 32.095 32.1697 32 32.3636L29.1636 37.4545C28.1939 37.0667 27.2242 36.7632 26.2545 36.544C25.2849 36.3249 24.2909 36.2162 23.2727 36.2182C22.2545 36.2182 21.2606 36.3278 20.2909 36.5469C19.3212 36.7661 18.3515 37.0686 17.3818 37.4545L14.5455 32.3636C14.4485 32.1212 14.2904 32 14.0713 32C13.8521 32 13.6223 32.0485 13.3818 32.1455L13.0909 33.2364L15.8545 38.1818C13.8182 39.3455 12.1697 40.9212 10.9091 42.9091C9.64849 44.897 8.92122 47.0788 8.72728 49.4545ZM16.7273 45.0909C16.3394 45.0909 16 44.9455 15.7091 44.6545C15.4182 44.3636 15.2727 44.0242 15.2727 43.6364C15.2727 43.2485 15.4182 42.9091 15.7091 42.6182C16 42.3273 16.3394 42.1818 16.7273 42.1818C17.1152 42.1818 17.4546 42.3273 17.7455 42.6182C18.0364 42.9091 18.1818 43.2485 18.1818 43.6364C18.1818 44.0242 18.0364 44.3636 17.7455 44.6545C17.4546 44.9455 17.1152 45.0909 16.7273 45.0909ZM29.8182 45.0909C29.4303 45.0909 29.0909 44.9455 28.8 44.6545C28.5091 44.3636 28.3636 44.0242 28.3636 43.6364C28.3636 43.2485 28.5091 42.9091 28.8 42.6182C29.0909 42.3273 29.4303 42.1818 29.8182 42.1818C30.2061 42.1818 30.5455 42.3273 30.8364 42.6182C31.1273 42.9091 31.2727 43.2485 31.2727 43.6364C31.2727 44.0242 31.1273 44.3636 30.8364 44.6545C30.5455 44.9455 30.2061 45.0909 29.8182 45.0909Z" fill="currentColor"></path>
  </symbol>
  <symbol fill="none" xmlns="http://www.w3.org/2000/svg" viewBox="0 0 57 64" id="fdroid">
    <path d="M7.11109 40.8909C7.11109 41.8339 6.73648 42.7383 6.06969 43.4051C5.4029 44.0719 4.49853 44.4465 3.55554 44.4465C2.61255 44.4465 1.70819 44.0719 1.0414 43.4051C0.374601 42.7383 0 41.8339 0 40.8909V24.891C0 23.948 0.374601 23.0436 1.0414 22.3768C1.70819 21.7101 2.61255 21.3354 3.55554 21.3354C4.49853 21.3354 5.4029 21.7101 6.06969 22.3768C6.73648 23.0436 7.11109 23.948 7.11109 24.891V40.8909ZM56.8887 40.8909C56.8887 41.8339 56.5141 42.7383 55.8473 43.4051C55.1805 44.0719 54.2761 44.4465 53.3331 44.4465C52.3902 44.4465 51.4858 44.0719 50.819 43.4051C50.1522 42.7383 49.7776 41.8339 49.7776 40.8909V24.891C49.7776 23.948 50.1522 23.0436 50.819 22.3768C51.4858 21.7101 52.3902 21.3354 53.3331 21.3354C54.2761 21.3354 55.1805 21.7101 55.8473 22.3768C56.5141 23.0436 56.8887 23.948 56.8887 24.891V40.8909ZM24.8888 60.4446C24.8888 61.3876 24.5142 62.292 23.8474 62.9588C23.1806 63.6256 22.2762 64.0002 21.3333 64.0002C20.3903 64.0002 19.4859 63.6256 18.8191 62.9588C18.1523 62.292 17.7777 61.3876 17.7777 60.4446V44.4447C17.7777 43.5017 18.1523 42.5973 18.8191 41.9306C19.4859 41.2638 20.3903 40.8892 21.3333 40.8892C22.2762 40.8892 23.1806 41.2638 23.8474 41.9306C24.5142 42.5973 24.8888 43.5017 24.8888 44.4447V60.4446ZM39.111 60.4446C39.111 61.3876 38.7364 62.292 38.0696 62.9588C37.4028 63.6256 36.4984 64.0002 35.5554 64.0002C34.6124 64.0002 33.7081 63.6256 33.0413 62.9588C32.3745 62.292 31.9999 61.3876 31.9999 60.4446V44.4447C31.9999 43.5017 32.3745 42.5973 33.0413 41.9306C33.7081 41.2638 34.6124 40.8892 35.5554 40.8892C36.4984 40.8892 37.4028 41.2638 38.0696 41.9306C38.7364 42.5973 39.111 43.5017 39.111 44.4447V60.4446Z" fill="currentColor"></path>
    <path d="M10.6666 21.3352V48C10.6666 48.9429 11.0412 49.8473 11.708 50.5141C12.3748 51.1809 13.2792 51.5555 14.2222 51.5555H42.6665C43.6095 51.5555 44.5139 51.1809 45.1807 50.5141C45.8475 49.8473 46.2221 48.9429 46.2221 48V21.3352H10.6666ZM28.4443 3.55566C17.7777 3.55566 11.28 10.0356 10.6666 17.7778H46.2221C45.6069 10.0356 39.111 3.55566 28.4443 3.55566ZM21.3333 13.5076C20.8618 13.5076 20.4096 13.3203 20.0762 12.9869C19.7428 12.6535 19.5555 12.2014 19.5555 11.7299C19.5555 11.2584 19.7428 10.8062 20.0762 10.4728C20.4096 10.1394 20.8618 9.95209 21.3333 9.95209C21.8047 9.95209 22.2569 10.1394 22.5903 10.4728C22.9237 10.8062 23.111 11.2584 23.111 11.7299C23.111 12.2014 22.9237 12.6535 22.5903 12.9869C22.2569 13.3203 21.8047 13.5076 21.3333 13.5076ZM35.5554 13.5076C35.0839 13.5076 34.6318 13.3203 34.2984 12.9869C33.965 12.6535 33.7777 12.2014 33.7777 11.7299C33.7777 11.2584 33.965 10.8062 34.2984 10.4728C34.6318 10.1394 35.0839 9.95209 35.5554 9.95209C36.0269 9.95209 36.4791 10.1394 36.8125 10.4728C37.1459 10.8062 37.3332 11.2584 37.3332 11.7299C37.3332 12.2014 37.1459 12.6535 36.8125 12.9869C36.4791 13.3203 36.0269 13.5076 35.5554 13.5076Z" fill="currentColor"></path>
    <path fill-rule="evenodd" clip-rule="evenodd" d="M16.8187 0.280795C17.6456 -0.248614 18.745 -0.00746714 19.2745 0.819411L21.6442 4.52073C22.1736 5.34761 21.9325 6.4471 21.1056 6.97651C20.2787 7.50592 19.1792 7.26477 18.6498 6.43789L16.2801 2.73657C15.7507 1.90969 15.9918 0.810204 16.8187 0.280795ZM40.0966 0.298796C40.9136 0.843421 41.1343 1.94718 40.5897 2.76412L37.6279 7.20677C37.0833 8.02371 35.9796 8.24446 35.1626 7.69984C34.3457 7.15521 34.1249 6.05145 34.6696 5.23451L37.6313 0.791861C38.1759 -0.0250761 39.2797 -0.245829 40.0966 0.298796Z" fill="currentColor"></path>
  </symbol>
  <symbol fill="none" xmlns="http://www.w3.org/2000/svg" viewBox="0 0 58 64" id="play">
    <path d="M55.4486 35.4615L44.9978 41.3762L35.6244 32.0615L45.0725 22.6721L55.4486 28.5441C56.0609 28.8904 56.5704 29.3931 56.9249 30.0007C57.2794 30.6084 57.4661 31.2993 57.4661 32.0028C57.4661 32.7063 57.2794 33.3972 56.9249 34.0049C56.5704 34.6126 56.0609 35.1152 55.4486 35.4615ZM0.298673 2.46386C0.100777 2.94429 -0.00070557 3.45894 3.69223e-06 3.97854V60.0244C3.69223e-06 60.6031 0.120005 61.1418 0.330674 61.6244L30.0776 32.0588L0.298673 2.46386ZM32.851 29.3041L41.5391 20.6694L5.9334 0.519836C5.17022 0.0812591 4.28136 -0.0869281 3.4107 0.0424975L32.851 29.3041ZM32.851 34.8162L3.51737 63.9711C4.31205 64.0671 5.14939 63.9285 5.9334 63.4831L41.4644 43.3763L32.851 34.8162Z" fill="currentColor"></path>
  </symbol>
</svg>