<svg width="1842" height="1746" fill="none" xmlns="http://www.w3.org/2000/svg"><g filter="url(#a)"><path d="M1283.79 857.68 882.793 1207.1c-13.102 11.42-32.449-3.3-24.941-18.98L967.9 958.397c5.088-10.621-2.654-22.913-14.43-22.913H760.89c-14.688 0-21.615-18.134-10.666-27.926l405.726-362.873c13.23-11.833 33.01 3.468 24.89 19.25l-124.77 242.359c-5.48 10.648 2.25 23.323 14.23 23.323h202.98c14.79 0 21.67 18.347 10.51 28.063Z" fill="#FDBE00"/></g><g filter="url(#b)"><path d="M1483.45 837.069 590.398 1392.66c-14.635 9.11-31.342-8.18-21.739-22.5l257.259-383.424c7.132-10.63-.486-24.914-13.286-24.914H366.785c-15.994 0-22.091-20.878-8.611-29.486l907.176-579.294c14.87-9.495 31.91 8.533 21.59 22.842L994.032 782.126c-7.63 10.582-.068 25.357 12.978 25.357h467.98c16.1 0 22.12 21.085 8.46 29.586Z" fill="#FFF75C"/></g><defs><filter id="a" x="644.857" y="440.482" width="744.458" height="870.674" filterUnits="userSpaceOnUse" color-interpolation-filters="sRGB"><feFlood flood-opacity="0" result="BackgroundImageFix"/><feBlend in="SourceGraphic" in2="BackgroundImageFix" result="shape"/><feGaussianBlur stdDeviation="50" result="effect1_foregroundBlur_233_3"/></filter><filter id="b" x=".756" y=".395" width="1840.27" height="1744.8" filterUnits="userSpaceOnUse" color-interpolation-filters="sRGB"><feFlood flood-opacity="0" result="BackgroundImageFix"/><feBlend in="SourceGraphic" in2="BackgroundImageFix" result="shape"/><feGaussianBlur stdDeviation="175" result="effect1_foregroundBlur_233_3"/></filter></defs></svg>