<svg width="296" height="88" fill="none" xmlns="http://www.w3.org/2000/svg"><path d="M6.862 68V22.532h12.891c3.096 0 5.8.37 8.11 1.11 2.356.739 4.181 1.917 5.475 3.534 1.34 1.617 2.01 3.766 2.01 6.446 0 2.264-.647 4.32-1.94 6.169-1.294 1.802-3.304 3.05-6.03 3.742v.278c3.326.508 5.914 1.663 7.762 3.465 1.849 1.802 2.773 4.274 2.773 7.416 0 2.958-.716 5.43-2.149 7.417-1.432 1.986-3.442 3.465-6.03 4.435-2.541.97-5.522 1.456-8.94 1.456H6.861Zm5.752-26.338h6.17c3.88 0 6.653-.624 8.316-1.871 1.71-1.248 2.565-3.142 2.565-5.684 0-2.449-.901-4.181-2.703-5.198-1.756-1.017-4.39-1.525-7.902-1.525h-6.445v14.278Zm0 21.486h7.347c3.882 0 6.885-.67 9.01-2.01 2.172-1.386 3.258-3.627 3.258-6.723 0-2.819-1.062-4.828-3.188-6.03-2.08-1.247-5.106-1.871-9.08-1.871h-7.346v16.634Z" fill="#fff"/><path fill="#fff" d="M12.586 17.48h4.195v6.409h-4.195zm0 50.577h4.195v6.409h-4.195zm7.225-50.577h4.195v6.409h-4.195zm0 50.577h4.195v6.409h-4.195zm24.473-34.262h5.827v34.961h-5.827z"/><circle cx="47.198" cy="27.386" r="4.079" fill="#fff"/><path d="M75.088 68.636c-3.281 0-5.869-.578-7.763-1.733-1.895-1.201-3.258-2.841-4.09-4.92-.785-2.08-1.178-4.506-1.178-7.278V38.457h-6.12v-4.662h6.41l.68-10.488h4.714v10.488h10.338v4.662H67.74v16.317c0 1.987.254 3.673.762 5.06.508 1.386 1.386 2.426 2.634 3.119 1.247.693 3.022.773 5.194.773h2.913l.583 4.078s-2.614.832-4.74.832Z" fill="#fff"/><path d="M87.27 68V22.532h12.893c3.096 0 5.799.37 8.109 1.11 2.357.739 4.182 1.917 5.475 3.534 1.34 1.617 2.01 3.766 2.01 6.446 0 2.264-.646 4.32-1.94 6.169-1.294 1.802-3.304 3.05-6.03 3.742v.278c3.327.508 5.914 1.663 7.763 3.465 1.848 1.802 2.772 4.274 2.772 7.416 0 2.958-.716 5.43-2.149 7.417-1.432 1.986-3.442 3.465-6.03 4.435-2.541.97-5.521 1.456-8.941 1.456H87.271Zm5.754-26.338h6.168c3.882 0 6.654-.624 8.318-1.871 1.709-1.248 2.564-3.142 2.564-5.684 0-2.449-.901-4.181-2.703-5.198-1.756-1.017-4.39-1.525-7.901-1.525h-6.446v14.278Zm0 21.486h7.347c3.881 0 6.884-.67 9.01-2.01 2.172-1.386 3.258-3.627 3.258-6.723 0-2.819-1.063-4.828-3.189-6.03-2.079-1.247-5.106-1.871-9.079-1.871h-7.347v16.634Zm39.064 5.684c-2.08 0-3.997-.37-5.753-1.11-1.756-.785-3.142-1.894-4.159-3.326-1.016-1.433-1.525-3.142-1.525-5.13 0-3.788 1.895-6.653 5.684-8.594 3.789-1.986 10.027-3.326 18.714-4.02-.047-1.524-.37-2.934-.971-4.227-.554-1.294-1.478-2.31-2.772-3.05-1.294-.786-3.027-1.178-5.198-1.178-1.433 0-2.865.207-4.298.623a21.17 21.17 0 0 0-4.02 1.525 40.326 40.326 0 0 0-3.465 1.872l-2.218-3.882c1.109-.74 2.449-1.479 4.02-2.218a26.662 26.662 0 0 1 5.198-1.871 21.605 21.605 0 0 1 5.753-.763c3.096 0 5.637.578 7.624 1.733 2.033 1.155 3.535 2.773 4.505 4.852 1.017 2.033 1.525 4.459 1.525 7.278V68h-4.644l-.485-4.575h-.208c-1.848 1.48-3.927 2.75-6.238 3.813-2.31 1.062-4.667 1.594-7.069 1.594Zm1.524-4.575c1.941 0 3.859-.439 5.753-1.317 1.895-.878 3.789-2.102 5.684-3.673v-8.872c-4.806.416-8.595.994-11.367 1.733-2.726.74-4.667 1.687-5.822 2.842-1.109 1.109-1.664 2.402-1.664 3.881 0 1.248.347 2.287 1.04 3.119.693.785 1.594 1.363 2.703 1.733 1.155.37 2.38.554 3.673.554ZM156.111 68V34.315h4.713l.486 5.753h.277c1.756-1.895 3.65-3.466 5.683-4.713 2.033-1.248 4.367-1.872 7.001-1.872 3.973 0 6.908 1.156 8.802 3.466 1.895 2.31 2.842 5.683 2.842 10.12V68h-5.684V47.83c0-3.188-.6-5.544-1.802-7.069-1.201-1.571-3.188-2.357-5.96-2.357-1.987 0-3.766.509-5.337 1.525-1.571 1.017-3.35 2.542-5.337 4.575V68h-5.684Zm45.233.832c-2.079 0-3.997-.37-5.753-1.11-1.756-.785-3.142-1.894-4.158-3.326-1.017-1.433-1.525-3.142-1.525-5.13 0-3.788 1.894-6.653 5.683-8.594 3.789-1.986 10.027-3.326 18.714-4.02-.046-1.524-.37-2.934-.97-4.227-.555-1.294-1.479-2.31-2.773-3.05-1.294-.786-3.026-1.178-5.198-1.178-1.433 0-2.865.207-4.297.623a21.12 21.12 0 0 0-4.02 1.525 40.2 40.2 0 0 0-3.466 1.872l-2.218-3.882c1.109-.74 2.449-1.479 4.02-2.218a26.662 26.662 0 0 1 5.198-1.871 21.605 21.605 0 0 1 5.753-.763c3.096 0 5.637.578 7.624 1.733 2.033 1.155 3.535 2.773 4.506 4.852 1.016 2.033 1.524 4.459 1.524 7.278V68h-4.643l-.486-4.575h-.208c-1.848 1.48-3.927 2.75-6.237 3.813-2.311 1.062-4.667 1.594-7.07 1.594Zm1.525-4.575c1.94 0 3.858-.439 5.752-1.317 1.895-.878 3.789-2.102 5.684-3.673v-8.872c-4.806.416-8.595.994-11.367 1.733-2.726.74-4.667 1.687-5.822 2.842-1.109 1.109-1.663 2.402-1.663 3.881 0 1.248.346 2.287 1.039 3.119.693.785 1.594 1.363 2.703 1.733 1.155.37 2.38.554 3.674.554ZM225.368 68V34.315h4.713l.485 5.753h.277c1.756-1.895 3.65-3.466 5.684-4.713 2.033-1.248 4.366-1.872 7-1.872 3.974 0 6.908 1.156 8.802 3.466 1.895 2.31 2.842 5.683 2.842 10.12V68h-5.683V47.83c0-3.188-.601-5.544-1.803-7.069-1.201-1.571-3.188-2.357-5.96-2.357-1.987 0-3.766.509-5.337 1.525-1.571 1.017-3.35 2.542-5.337 4.575V68h-5.683Zm45.232.832c-2.079 0-3.997-.37-5.753-1.11-1.755-.785-3.142-1.894-4.158-3.326-1.017-1.433-1.525-3.142-1.525-5.13 0-3.788 1.894-6.653 5.683-8.594 3.789-1.986 10.027-3.326 18.714-4.02-.046-1.524-.369-2.934-.97-4.227-.555-1.294-1.479-2.31-2.773-3.05-1.293-.786-3.026-1.178-5.198-1.178a15.34 15.34 0 0 0-4.297.623 21.17 21.17 0 0 0-4.02 1.525 40.2 40.2 0 0 0-3.466 1.872l-2.218-3.882c1.109-.74 2.449-1.479 4.02-2.218a26.672 26.672 0 0 1 5.199-1.871 21.598 21.598 0 0 1 5.752-.763c3.096 0 5.638.578 7.625 1.733 2.033 1.155 3.534 2.773 4.505 4.852 1.016 2.033 1.525 4.459 1.525 7.278V68h-4.644l-.485-4.575h-.208c-1.849 1.48-3.928 2.75-6.238 3.813-2.311 1.062-4.667 1.594-7.07 1.594Zm1.525-4.575c1.941 0 3.858-.439 5.753-1.317 1.894-.878 3.789-2.102 5.683-3.673v-8.872c-4.805.416-8.594.994-11.367 1.733-2.726.74-4.667 1.687-5.822 2.842-1.109 1.109-1.663 2.402-1.663 3.881 0 1.248.346 2.287 1.039 3.119.694.785 1.595 1.363 2.704 1.733 1.155.37 2.379.554 3.673.554Z" fill="#FDBE00"/></svg>