<svg width="218" height="65" viewBox="0 0 218 65" fill="none" xmlns="http://www.w3.org/2000/svg">
<path d="M5.03751 50V16.6201H14.5019C16.7747 16.6201 18.7592 16.8915 20.4553 17.4343C22.1854 17.9771 23.5253 18.8421 24.4752 20.0294C25.4589 21.2167 25.9508 22.7941 25.9508 24.7616C25.9508 26.4238 25.4759 27.9333 24.5261 29.2902C23.5762 30.6132 22.1006 31.5291 20.0991 32.038V32.2415C22.5416 32.6147 24.4412 33.4627 25.7981 34.7857C27.1551 36.1087 27.8335 37.9235 27.8335 40.2303C27.8335 42.4013 27.3077 44.2162 26.2561 45.6749C25.2045 47.1335 23.7289 48.2191 21.8292 48.9314C19.9635 49.6438 17.7754 50 15.2652 50H5.03751ZM9.26087 30.6641H13.7895C16.639 30.6641 18.6744 30.2062 19.8956 29.2902C21.1508 28.3743 21.7783 26.9835 21.7783 25.1178C21.7783 23.3199 21.1168 22.0478 19.7938 21.3015C18.5048 20.5552 16.5712 20.182 13.9931 20.182H9.26087V30.6641ZM9.26087 46.4381H14.6546C17.5041 46.4381 19.709 45.9462 21.2695 44.9625C22.8638 43.9448 23.661 42.2996 23.661 40.0268C23.661 37.9575 22.8808 36.4818 21.3204 35.5998C19.7938 34.6839 17.5719 34.226 14.6546 34.226H9.26087V46.4381Z" fill="white"/>
<rect x="9.23999" y="12.833" width="3.08069" height="4.70662" fill="white"/>
<rect x="9.23999" y="49.9634" width="3.08069" height="4.70662" fill="white"/>
<rect x="14.5449" y="12.833" width="3.08069" height="4.70662" fill="white"/>
<rect x="14.5449" y="49.9634" width="3.08069" height="4.70662" fill="white"/>
<rect x="32.5122" y="24.8105" width="4.2777" height="25.6662" fill="white"/>
<circle cx="34.6514" cy="20.106" r="2.99512" fill="white"/>
<path d="M55.1246 50.3889C52.7161 50.3889 50.8165 49.9649 49.4256 49.1168C48.0348 48.2348 47.0341 47.0306 46.4235 45.5041C45.8468 43.9776 45.5585 42.1966 45.5585 40.1613V28.2329H41.0654V24.8107H45.7709L46.2708 17.1108H49.731V24.8107H57.3207V28.2329H49.731V40.2121C49.731 41.6708 49.9175 42.909 50.2907 43.9267C50.6638 44.9443 51.3084 45.7076 52.2243 46.2164C53.1402 46.7253 54.443 46.7839 56.0374 46.7839C57.2247 46.7839 57.3207 46.7839 58.1762 46.7839L58.604 49.7783C58.604 49.7783 56.6851 50.3889 55.1246 50.3889Z" fill="white"/>
<path d="M64.0702 50V16.6201H73.5346C75.8074 16.6201 77.7919 16.8915 79.4881 17.4343C81.2181 17.9771 82.558 18.8421 83.5079 20.0294C84.4916 21.2167 84.9835 22.7941 84.9835 24.7616C84.9835 26.4238 84.5086 27.9333 83.5588 29.2902C82.6089 30.6132 81.1333 31.5291 79.1319 32.038V32.2415C81.5743 32.6147 83.474 33.4627 84.8309 34.7857C86.1878 36.1087 86.8662 37.9235 86.8662 40.2303C86.8662 42.4013 86.3404 44.2162 85.2888 45.6749C84.2372 47.1335 82.7616 48.2191 80.8619 48.9314C78.9962 49.6438 76.8082 50 74.2979 50H64.0702ZM68.2936 30.6641H72.8223C75.6718 30.6641 77.7071 30.2062 78.9283 29.2902C80.1835 28.3743 80.811 26.9835 80.811 25.1178C80.811 23.3199 80.1495 22.0478 78.8266 21.3015C77.5375 20.5552 75.6039 20.182 73.0258 20.182H68.2936V30.6641ZM68.2936 46.4381H73.6873C76.5368 46.4381 78.7418 45.9462 80.3022 44.9625C81.8966 43.9448 82.6937 42.2996 82.6937 40.0268C82.6937 37.9575 81.9135 36.4818 80.3531 35.5998C78.8266 34.6839 76.6046 34.226 73.6873 34.226H68.2936V46.4381ZM96.9722 50.6106C95.4457 50.6106 94.0379 50.3392 92.7489 49.7965C91.4598 49.2198 90.4421 48.4056 89.6958 47.354C88.9495 46.3024 88.5764 45.0473 88.5764 43.5886C88.5764 40.807 89.9672 38.7038 92.7489 37.279C95.5305 35.8203 100.11 34.8366 106.488 34.3278C106.454 33.2083 106.216 32.1737 105.775 31.2238C105.368 30.274 104.69 29.5277 103.74 28.9849C102.79 28.4083 101.518 28.1199 99.9235 28.1199C98.8719 28.1199 97.8203 28.2726 96.7687 28.5779C95.751 28.8492 94.7673 29.2224 93.8174 29.6973C92.9015 30.1383 92.0535 30.5963 91.2732 31.0712L89.645 28.2217C90.4591 27.6789 91.4429 27.1362 92.5962 26.5934C93.7835 26.0167 95.0556 25.5588 96.4125 25.2195C97.7694 24.8464 99.1772 24.6598 100.636 24.6598C102.909 24.6598 104.774 25.0838 106.233 25.9319C107.726 26.78 108.828 27.9673 109.541 29.4938C110.287 30.9864 110.66 32.7673 110.66 34.8366V50H107.251L106.895 46.6417H106.742C105.385 47.7272 103.859 48.6601 102.162 49.4403C100.466 50.2205 98.7362 50.6106 96.9722 50.6106ZM98.0917 47.2523C99.5164 47.2523 100.924 46.93 102.315 46.2855C103.706 45.6409 105.097 44.742 106.488 43.5886V37.0755C102.96 37.3808 100.178 37.8048 98.1426 38.3476C96.1411 38.8903 94.7164 39.5858 93.8683 40.4338C93.0542 41.248 92.6471 42.1978 92.6471 43.2833C92.6471 44.1992 92.9015 44.9625 93.4104 45.5731C93.9192 46.1498 94.5807 46.5738 95.3948 46.8452C96.2429 47.1166 97.1419 47.2523 98.0917 47.2523ZM114.609 50V25.2704H118.069L118.425 29.4938H118.629C119.918 28.103 121.309 26.9496 122.801 26.0337C124.294 25.1178 126.007 24.6598 127.941 24.6598C130.858 24.6598 133.012 25.5079 134.403 27.204C135.794 28.9001 136.489 31.3765 136.489 34.6331V50H132.317V35.1928C132.317 32.8521 131.876 31.1221 130.994 30.0026C130.112 28.8493 128.653 28.2726 126.618 28.2726C125.159 28.2726 123.853 28.6457 122.7 29.392C121.546 30.1383 120.24 31.2578 118.782 32.7504V50H114.609ZM147.816 50.6106C146.29 50.6106 144.882 50.3392 143.593 49.7965C142.304 49.2198 141.286 48.4056 140.54 47.354C139.794 46.3024 139.421 45.0473 139.421 43.5886C139.421 40.807 140.811 38.7038 143.593 37.279C146.375 35.8203 150.954 34.8366 157.332 34.3278C157.298 33.2083 157.06 32.1737 156.619 31.2238C156.212 30.274 155.534 29.5277 154.584 28.9849C153.634 28.4083 152.362 28.1199 150.768 28.1199C149.716 28.1199 148.664 28.2726 147.613 28.5779C146.595 28.8492 145.611 29.2224 144.662 29.6973C143.746 30.1383 142.898 30.5963 142.117 31.0712L140.489 28.2217C141.303 27.6789 142.287 27.1362 143.44 26.5934C144.628 26.0167 145.9 25.5588 147.257 25.2195C148.614 24.8464 150.021 24.6598 151.48 24.6598C153.753 24.6598 155.619 25.0838 157.077 25.9319C158.57 26.78 159.672 27.9673 160.385 29.4938C161.131 30.9864 161.504 32.7673 161.504 34.8366V50H158.095L157.739 46.6417H157.586C156.229 47.7272 154.703 48.6601 153.007 49.4403C151.31 50.2205 149.58 50.6106 147.816 50.6106ZM148.936 47.2523C150.361 47.2523 151.768 46.93 153.159 46.2855C154.55 45.6409 155.941 44.742 157.332 43.5886V37.0755C153.804 37.3808 151.022 37.8048 148.987 38.3476C146.985 38.8903 145.561 39.5858 144.712 40.4338C143.898 41.248 143.491 42.1978 143.491 43.2833C143.491 44.1992 143.746 44.9625 144.255 45.5731C144.763 46.1498 145.425 46.5738 146.239 46.8452C147.087 47.1166 147.986 47.2523 148.936 47.2523ZM165.453 50V25.2704H168.913L169.27 29.4938H169.473C170.762 28.103 172.153 26.9496 173.646 26.0337C175.138 25.1178 176.851 24.6598 178.785 24.6598C181.702 24.6598 183.856 25.5079 185.247 27.204C186.638 28.9001 187.333 31.3765 187.333 34.6331V50H183.161V35.1928C183.161 32.8521 182.72 31.1221 181.838 30.0026C180.956 28.8493 179.497 28.2726 177.462 28.2726C176.003 28.2726 174.697 28.6457 173.544 29.392C172.39 30.1383 171.084 31.2578 169.626 32.7504V50H165.453ZM198.661 50.6106C197.134 50.6106 195.726 50.3392 194.437 49.7965C193.148 49.2198 192.13 48.4056 191.384 47.354C190.638 46.3024 190.265 45.0473 190.265 43.5886C190.265 40.807 191.656 38.7038 194.437 37.279C197.219 35.8203 201.798 34.8366 208.176 34.3278C208.142 33.2083 207.904 32.1737 207.463 31.2238C207.056 30.274 206.378 29.5277 205.428 28.9849C204.478 28.4083 203.206 28.1199 201.612 28.1199C200.56 28.1199 199.509 28.2726 198.457 28.5779C197.439 28.8492 196.456 29.2224 195.506 29.6973C194.59 30.1383 193.742 30.5963 192.962 31.0712L191.333 28.2217C192.147 27.6789 193.131 27.1362 194.285 26.5934C195.472 26.0167 196.744 25.5588 198.101 25.2195C199.458 24.8464 200.866 24.6598 202.324 24.6598C204.597 24.6598 206.463 25.0838 207.921 25.9319C209.414 26.78 210.517 27.9673 211.229 29.4938C211.975 30.9864 212.348 32.7673 212.348 34.8366V50H208.939L208.583 46.6417H208.43C207.073 47.7272 205.547 48.6601 203.851 49.4403C202.155 50.2205 200.425 50.6106 198.661 50.6106ZM199.78 47.2523C201.205 47.2523 202.613 46.93 204.003 46.2855C205.394 45.6409 206.785 44.742 208.176 43.5886V37.0755C204.648 37.3808 201.866 37.8048 199.831 38.3476C197.829 38.8903 196.405 39.5858 195.557 40.4338C194.743 41.248 194.335 42.1978 194.335 43.2833C194.335 44.1992 194.59 44.9625 195.099 45.5731C195.608 46.1498 196.269 46.5738 197.083 46.8452C197.931 47.1166 198.83 47.2523 199.78 47.2523Z" fill="#FDBE00"/>
</svg>
