<svg width="32" height="25" fill="none" xmlns="http://www.w3.org/2000/svg"><path d="M27.076 2.027A25.879 25.879 0 0 0 20.569 0a.137.137 0 0 0-.107.046 20.735 20.735 0 0 0-.807 1.66 24.52 24.52 0 0 0-7.315 0 15.257 15.257 0 0 0-.822-1.66C11.502.016 11.457 0 11.41 0a26.075 26.075 0 0 0-6.507 2.027c-.015 0-.03.015-.046.03C.713 8.26-.429 14.294.134 20.267c0 .03.016.061.046.076 2.743 2.012 5.38 3.231 7.985 4.039.046.015.091 0 .107-.03a19.634 19.634 0 0 0 1.63-2.652c.03-.061 0-.122-.06-.137a18.772 18.772 0 0 1-2.5-1.189c-.06-.03-.06-.122-.015-.168.168-.122.335-.259.503-.38a.093.093 0 0 1 .106-.016c5.242 2.393 10.896 2.393 16.077 0a.094.094 0 0 1 .107.015c.167.137.335.26.503.397.06.045.06.137-.016.167-.792.473-1.63.854-2.499 1.189-.06.015-.076.091-.06.137.487.93 1.036 1.813 1.63 2.651.046.016.091.03.137.016 2.621-.808 5.257-2.027 8-4.039a.084.084 0 0 0 .046-.076c.67-6.903-1.113-12.891-4.724-18.21-.015-.015-.03-.03-.061-.03ZM10.695 16.625c-1.57 0-2.88-1.447-2.88-3.23s1.28-3.23 2.88-3.23c1.615 0 2.895 1.462 2.88 3.23 0 1.783-1.28 3.23-2.88 3.23Zm10.62 0c-1.569 0-2.88-1.447-2.88-3.23s1.28-3.23 2.88-3.23c1.616 0 2.896 1.462 2.881 3.23 0 1.783-1.265 3.23-2.88 3.23Z" fill="#fff"/></svg>