<svg width="32" height="32" fill="none" xmlns="http://www.w3.org/2000/svg"><g clip-path="url(#a)"><path d="M16 0a16 16 0 1 0 0 32 16 16 0 0 0 0-32Zm4.217 29.044h-.124a.683.683 0 0 1-.509-.187.684.684 0 0 1-.187-.496v-1.874c.008-.623.014-1.254.014-1.888a4.924 4.924 0 0 0-.202-1.371 2.443 2.443 0 0 0-.722-1.167c.929-.09 1.843-.3 2.717-.628a5.402 5.402 0 0 0 1.955-1.285 5.111 5.111 0 0 0 1.18-2.008 9.03 9.03 0 0 0 .4-2.84 5.517 5.517 0 0 0-.347-1.968 5.19 5.19 0 0 0-1.06-1.712c.1-.25.172-.51.216-.776a4.95 4.95 0 0 0 .067-.805c0-.347-.04-.694-.12-1.031a7.08 7.08 0 0 0-.295-1.017.39.39 0 0 0-.148-.027h-.147a2.978 2.978 0 0 0-.898.148 7.13 7.13 0 0 0-.938.347 8.678 8.678 0 0 0-.881.457c-.287.17-.54.332-.764.483a12.77 12.77 0 0 0-6.857 0c-.25-.168-.505-.329-.763-.483a8.024 8.024 0 0 0-.896-.456 6.02 6.02 0 0 0-.94-.348 2.937 2.937 0 0 0-.883-.148H8.94a.39.39 0 0 0-.147.027 7.793 7.793 0 0 0-.307 1.017 5.048 5.048 0 0 0-.108 1.03c0 .27.023.54.068.806.044.265.115.525.214.776a5.183 5.183 0 0 0-1.056 1.713 5.523 5.523 0 0 0-.351 1.968c-.019.957.113 1.91.39 2.827.24.75.643 1.44 1.178 2.021.553.563 1.22 1 1.955 1.286.87.333 1.782.546 2.71.634a2.441 2.441 0 0 0-.602.844 3.986 3.986 0 0 0-.267.992 3.67 3.67 0 0 1-1.567.36c-.503.02-1-.12-1.42-.4a3.872 3.872 0 0 1-1.002-1.098 4.139 4.139 0 0 0-.39-.51 3.592 3.592 0 0 0-.496-.457 2.454 2.454 0 0 0-.576-.32 1.6 1.6 0 0 0-.641-.135 1.628 1.628 0 0 0-.16.014.864.864 0 0 0-.216.026.547.547 0 0 0-.173.08.155.155 0 0 0-.08.134.44.44 0 0 0 .186.322c.124.099.227.175.31.228l.04.028c.177.138.348.286.509.444.15.131.284.279.4.44.12.159.224.328.308.508.097.179.2.384.308.618.25.632.696 1.166 1.272 1.526a3.949 3.949 0 0 0 1.968.468c.232 0 .465-.013.696-.04.23-.037.457-.076.687-.121v2.324a.669.669 0 0 1-.711.695h-.083a13.715 13.715 0 1 1 8.432 0v.005Z" fill="#fff"/></g><defs><clipPath id="a"><path fill="#fff" d="M0 0h32v32H0z"/></clipPath></defs></svg>