<svg width="32" height="32" fill="none" xmlns="http://www.w3.org/2000/svg"><path d="M29.947 8a11.424 11.424 0 0 1-3.28.92 5.731 5.731 0 0 0 2.506-3.173 11.52 11.52 0 0 1-3.626 1.4C24.493 6 23.013 5.333 21.333 5.333c-3.133 0-5.693 2.56-5.693 5.72 0 .454.053.894.147 1.307A16.259 16.259 0 0 1 4 6.387a5.659 5.659 0 0 0-.773 2.867c0 1.986 1 3.746 2.546 4.746-.946 0-1.826-.267-2.6-.666v.04a5.724 5.724 0 0 0 4.587 5.613c-.839.23-1.72.261-2.573.093a5.707 5.707 0 0 0 5.333 3.974 11.361 11.361 0 0 1-7.107 2.453c-.453 0-.906-.027-1.36-.08A16.192 16.192 0 0 0 10.827 28c10.506 0 16.28-8.72 16.28-16.28 0-.253 0-.493-.014-.747A11.43 11.43 0 0 0 29.947 8Z" fill="#fff"/></svg>