<svg width="64" height="59" fill="none" xmlns="http://www.w3.org/2000/svg"><path d="M52.364 58.182 40.727 46.545 44.8 42.4l4.655 4.582V34.909h5.818v12.073l4.654-4.582L64 46.545 52.364 58.182Zm-46.546 0c-1.6 0-2.97-.57-4.11-1.71C.568 55.33-.002 53.961 0 52.363V5.818c0-1.6.57-2.97 1.71-4.11C2.85.568 4.22-.002 5.819 0h23.273l17.454 17.454v12.364h-8.727v28.364h-32Zm20.364-37.818h14.545L26.182 5.818v14.546ZM8.727 49.454h29.091a14.199 14.199 0 0 0-2.182-6.545 13.996 13.996 0 0 0-4.945-4.727l2.764-4.946a.991.991 0 0 0 .072-.654.665.665 0 0 0-.436-.51.908.908 0 0 0-.62-.072.654.654 0 0 0-.471.364l-2.836 5.09c-.97-.387-1.94-.69-2.91-.91-.97-.22-1.963-.328-2.981-.326-1.018 0-2.012.11-2.982.329-.97.22-1.94.522-2.91.908l-2.835-5.091c-.098-.243-.256-.364-.475-.364-.219 0-.449.048-.69.145l-.29 1.091 2.764 4.946a13.997 13.997 0 0 0-4.946 4.727 14.198 14.198 0 0 0-2.182 6.546Zm8-4.363c-.388 0-.727-.145-1.018-.437-.29-.29-.436-.63-.436-1.018s.145-.727.436-1.018c.291-.29.63-.436 1.018-.436s.728.145 1.018.436c.291.291.437.63.437 1.018s-.146.728-.436 1.018c-.291.291-.63.437-1.019.437Zm13.091 0c-.388 0-.727-.145-1.018-.437-.29-.29-.436-.63-.436-1.018s.145-.727.436-1.018c.29-.29.63-.436 1.018-.436s.727.145 1.018.436c.291.291.437.63.437 1.018s-.146.728-.437 1.018c-.29.291-.63.437-1.018.437Z" fill="#FDBE00"/></svg>