<svg width="57" height="64" fill="none" xmlns="http://www.w3.org/2000/svg"><path d="M7.111 40.89a3.556 3.556 0 0 1-7.111 0V24.892a3.556 3.556 0 1 1 7.111 0v16Zm49.778 0a3.556 3.556 0 1 1-7.111 0V24.892a3.556 3.556 0 1 1 7.11 0v16Zm-32 19.555a3.556 3.556 0 1 1-7.111 0v-16a3.555 3.555 0 1 1 7.11 0v16Zm14.222 0a3.556 3.556 0 1 1-7.111 0v-16a3.555 3.555 0 1 1 7.111 0v16Z" fill="#FDBE00"/><path d="M10.667 21.335V48a3.556 3.556 0 0 0 3.555 3.556h28.444A3.556 3.556 0 0 0 46.222 48V21.335H10.667Zm17.777-17.78c-10.666 0-17.164 6.48-17.777 14.223h35.555c-.615-7.742-7.111-14.222-17.778-14.222Zm-7.11 9.953a1.778 1.778 0 1 1 0-3.556 1.778 1.778 0 0 1 0 3.556Zm14.221 0a1.778 1.778 0 1 1 0-3.556 1.778 1.778 0 0 1 0 3.556Z" fill="#FDBE00"/><path fill-rule="evenodd" clip-rule="evenodd" d="M16.819.28a1.778 1.778 0 0 1 2.456.54l2.37 3.7a1.778 1.778 0 1 1-2.995 1.918l-2.37-3.701A1.778 1.778 0 0 1 16.82.28ZM40.097.3a1.778 1.778 0 0 1 .493 2.465l-2.962 4.443a1.778 1.778 0 1 1-2.958-1.972L37.63.792a1.778 1.778 0 0 1 2.466-.493Z" fill="#FDBE00"/></svg>